# xmcd
#
# Track frame offsets:
#	150
#	23103
#	42092
#	59356
#	79264
#	96381
#	115649
#	131960
#	144953
#	158475
#	186595
#	202209
#
# Disc length: 3235 seconds
# Revision: 2
# Processed by: cddbd v1.5.2PL0 Copyright (c) Steve Scherf et al.
# Submitted via: dBpowerAMP V12.0
#
DISCID=a90ca10c
DTITLE=George Strait - The Cowboy Rides Away: Live From AT&T Stadium (Deluxe Edition)
DYEAR=2014
DGENRE=Country
TTITLE0=Murder On Music Row (with Alan Jackson)
TTITLE1=The Chair
TTITLE2=Give It All We Got Tonight
TTITLE3=How 'Bout Them Cowgirls (with Miranda Lambert)
TTITLE4=Run (with Miranda Lambert)
TTITLE5=I'll Always Remember You
TTITLE6=Ocean Front Property (with Kenny Chesney)
TTITLE7=The Fireman (with Kenny Chesney)
TTITLE8=Troubadour
TTITLE9=Unwound
TTITLE10=All My Ex's Live In Texas (with Special Guests)
TTITLE11=The Cowboy Rides Away
EXTD=
EXTT0=
EXTT1=
EXTT2=
EXTT3=
EXTT4=
EXTT5=
EXTT6=
EXTT7=
EXTT8=
EXTT9=
EXTT10=
EXTT11=
PLAYORDER=
